<svg width="467" height="96" viewBox="0 0 467 96" fill="none" xmlns="http://www.w3.org/2000/svg">
<g filter="url(#filter0_ddd_2_3141)">
<rect x="20" y="8" width="427" height="48" rx="10" fill="#F23D5B"/>
<path d="M56 42C61.5228 42 66 37.5228 66 32C66 26.4771 61.5228 22 56 22C50.4771 22 46 26.4771 46 32C46 37.5228 50.4771 42 56 42Z" stroke="white" stroke-width="2" stroke-linecap="round" stroke-linejoin="round"/>
<path d="M56 28V32" stroke="white" stroke-width="2" stroke-linecap="round" stroke-linejoin="round"/>
<path d="M56 36.01L56.01 35.9989" stroke="white" stroke-width="2" stroke-linecap="round" stroke-linejoin="round"/>
<path d="M79.526 37V27.2H80.674L85.07 34.606H84.454L88.794 27.2H89.942L89.956 37H88.612L88.598 29.314H88.92L85.056 35.81H84.412L80.52 29.314H80.87V37H79.526ZM97.3325 37V35.432L97.2625 35.138V32.464C97.2625 31.8947 97.0945 31.456 96.7585 31.148C96.4318 30.8307 95.9371 30.672 95.2745 30.672C94.8358 30.672 94.4065 30.7467 93.9865 30.896C93.5665 31.036 93.2118 31.2273 92.9225 31.47L92.3625 30.462C92.7451 30.154 93.2025 29.9207 93.7345 29.762C94.2758 29.594 94.8405 29.51 95.4285 29.51C96.4458 29.51 97.2298 29.7573 97.7805 30.252C98.3311 30.7467 98.6065 31.5027 98.6065 32.52V37H97.3325ZM94.8965 37.084C94.3458 37.084 93.8605 36.9907 93.4405 36.804C93.0298 36.6173 92.7125 36.3607 92.4885 36.034C92.2645 35.698 92.1525 35.32 92.1525 34.9C92.1525 34.4987 92.2458 34.1347 92.4325 33.808C92.6285 33.4813 92.9411 33.22 93.3705 33.024C93.8091 32.828 94.3971 32.73 95.1345 32.73H97.4865V33.696H95.1905C94.5185 33.696 94.0658 33.808 93.8325 34.032C93.5991 34.256 93.4825 34.5267 93.4825 34.844C93.4825 35.208 93.6271 35.502 93.9165 35.726C94.2058 35.9407 94.6071 36.048 95.1205 36.048C95.6245 36.048 96.0631 35.936 96.4365 35.712C96.8191 35.488 97.0945 35.1613 97.2625 34.732L97.5285 35.656C97.3511 36.0947 97.0385 36.4447 96.5905 36.706C96.1425 36.958 95.5778 37.084 94.8965 37.084ZM106.403 37L103.533 33.388L104.639 32.716L107.985 37H106.403ZM101.027 37V29.58H102.371V37H101.027ZM101.965 33.864V32.716H104.415V33.864H101.965ZM104.751 33.444L103.505 33.276L106.347 29.58H107.789L104.751 33.444ZM112.382 37.084C111.626 37.084 110.949 36.9207 110.352 36.594C109.764 36.2673 109.302 35.8193 108.966 35.25C108.63 34.6807 108.462 34.0273 108.462 33.29C108.462 32.5527 108.63 31.8993 108.966 31.33C109.302 30.7607 109.764 30.3173 110.352 30C110.949 29.6733 111.626 29.51 112.382 29.51C113.054 29.51 113.651 29.6453 114.174 29.916C114.706 30.1773 115.116 30.5693 115.406 31.092L114.384 31.75C114.141 31.386 113.842 31.12 113.488 30.952C113.142 30.7747 112.769 30.686 112.368 30.686C111.882 30.686 111.448 30.7933 111.066 31.008C110.683 31.2227 110.38 31.526 110.156 31.918C109.932 32.3007 109.82 32.758 109.82 33.29C109.82 33.822 109.932 34.284 110.156 34.676C110.38 35.068 110.683 35.3713 111.066 35.586C111.448 35.8007 111.882 35.908 112.368 35.908C112.769 35.908 113.142 35.824 113.488 35.656C113.842 35.4787 114.141 35.208 114.384 34.844L115.406 35.488C115.116 36.0013 114.706 36.398 114.174 36.678C113.651 36.9487 113.054 37.084 112.382 37.084ZM117.146 37V29.58H118.49V34.984L123.04 29.58H124.258V37H122.914V31.596L118.378 37H117.146ZM126.866 37V29.58H128.252L131.444 35.068H130.884L134.16 29.58H135.42V37H134.202V31.092L134.426 31.218L131.43 36.16H130.842L127.832 31.12L128.098 31.064V37H126.866ZM142.586 37V35.432L142.516 35.138V32.464C142.516 31.8947 142.348 31.456 142.012 31.148C141.686 30.8307 141.191 30.672 140.528 30.672C140.09 30.672 139.66 30.7467 139.24 30.896C138.82 31.036 138.466 31.2273 138.176 31.47L137.616 30.462C137.999 30.154 138.456 29.9207 138.988 29.762C139.53 29.594 140.094 29.51 140.682 29.51C141.7 29.51 142.484 29.7573 143.034 30.252C143.585 30.7467 143.86 31.5027 143.86 32.52V37H142.586ZM140.15 37.084C139.6 37.084 139.114 36.9907 138.694 36.804C138.284 36.6173 137.966 36.3607 137.742 36.034C137.518 35.698 137.406 35.32 137.406 34.9C137.406 34.4987 137.5 34.1347 137.686 33.808C137.882 33.4813 138.195 33.22 138.624 33.024C139.063 32.828 139.651 32.73 140.388 32.73H142.74V33.696H140.444C139.772 33.696 139.32 33.808 139.086 34.032C138.853 34.256 138.736 34.5267 138.736 34.844C138.736 35.208 138.881 35.502 139.17 35.726C139.46 35.9407 139.861 36.048 140.374 36.048C140.878 36.048 141.317 35.936 141.69 35.712C142.073 35.488 142.348 35.1613 142.516 34.732L142.782 35.656C142.605 36.0947 142.292 36.4447 141.844 36.706C141.396 36.958 140.832 37.084 140.15 37.084ZM145.049 36.986L145.133 35.852C145.198 35.8613 145.259 35.8707 145.315 35.88C145.371 35.8893 145.422 35.894 145.469 35.894C145.767 35.894 146.001 35.7913 146.169 35.586C146.346 35.3807 146.477 35.11 146.561 34.774C146.645 34.4287 146.705 34.0413 146.743 33.612C146.78 33.1827 146.808 32.7533 146.827 32.324L146.953 29.58H152.651V37H151.307V30.364L151.629 30.756H147.821L148.129 30.35L148.031 32.408C148.003 33.0613 147.951 33.6727 147.877 34.242C147.802 34.8113 147.685 35.3107 147.527 35.74C147.377 36.1693 147.167 36.5053 146.897 36.748C146.635 36.9907 146.295 37.112 145.875 37.112C145.753 37.112 145.623 37.098 145.483 37.07C145.352 37.0513 145.207 37.0233 145.049 36.986ZM158.679 32.1C159.622 32.1093 160.341 32.324 160.835 32.744C161.33 33.164 161.577 33.7567 161.577 34.522C161.577 35.3247 161.307 35.9453 160.765 36.384C160.224 36.8133 159.459 37.0233 158.469 37.014L155.249 37V29.58H156.593V32.086L158.679 32.1ZM158.357 35.992C158.964 36.0013 159.421 35.88 159.729 35.628C160.047 35.376 160.205 35.0027 160.205 34.508C160.205 34.0227 160.051 33.668 159.743 33.444C159.435 33.22 158.973 33.1033 158.357 33.094L156.593 33.066V35.978L158.357 35.992ZM163.302 37V29.58H164.646V32.73H168.874V29.58H170.218V37H168.874V33.892H164.646V37H163.302ZM177.381 37V35.432L177.311 35.138V32.464C177.311 31.8947 177.143 31.456 176.807 31.148C176.481 30.8307 175.986 30.672 175.323 30.672C174.885 30.672 174.455 30.7467 174.035 30.896C173.615 31.036 173.261 31.2273 172.971 31.47L172.411 30.462C172.794 30.154 173.251 29.9207 173.783 29.762C174.325 29.594 174.889 29.51 175.477 29.51C176.495 29.51 177.279 29.7573 177.829 30.252C178.38 30.7467 178.655 31.5027 178.655 32.52V37H177.381ZM174.945 37.084C174.395 37.084 173.909 36.9907 173.489 36.804C173.079 36.6173 172.761 36.3607 172.537 36.034C172.313 35.698 172.201 35.32 172.201 34.9C172.201 34.4987 172.295 34.1347 172.481 33.808C172.677 33.4813 172.99 33.22 173.419 33.024C173.858 32.828 174.446 32.73 175.183 32.73H177.535V33.696H175.239C174.567 33.696 174.115 33.808 173.881 34.032C173.648 34.256 173.531 34.5267 173.531 34.844C173.531 35.208 173.676 35.502 173.965 35.726C174.255 35.9407 174.656 36.048 175.169 36.048C175.673 36.048 176.112 35.936 176.485 35.712C176.868 35.488 177.143 35.1613 177.311 34.732L177.577 35.656C177.4 36.0947 177.087 36.4447 176.639 36.706C176.191 36.958 175.627 37.084 174.945 37.084ZM185.821 37V34.396L186.031 34.648H183.665C182.676 34.648 181.901 34.438 181.341 34.018C180.791 33.598 180.515 32.9867 180.515 32.184C180.515 31.3253 180.809 30.6767 181.397 30.238C181.995 29.7993 182.788 29.58 183.777 29.58H187.025V37H185.821ZM180.445 37L182.461 34.158H183.847L181.887 37H180.445ZM185.821 33.976V30.378L186.031 30.756H183.819C183.203 30.756 182.727 30.8727 182.391 31.106C182.055 31.33 181.887 31.7033 181.887 32.226C181.887 33.1967 182.513 33.682 183.763 33.682H186.031L185.821 33.976ZM198.475 36.37V30.756H195.255L195.185 32.184C195.167 32.6507 195.134 33.1033 195.087 33.542C195.05 33.9713 194.985 34.368 194.891 34.732C194.807 35.096 194.681 35.3947 194.513 35.628C194.345 35.8613 194.121 36.006 193.841 36.062L192.511 35.824C192.801 35.8333 193.034 35.74 193.211 35.544C193.389 35.3387 193.524 35.0587 193.617 34.704C193.72 34.3493 193.795 33.948 193.841 33.5C193.888 33.0427 193.925 32.5713 193.953 32.086L194.065 29.58H199.819V36.37H198.475ZM192.217 38.722V35.824H200.953V38.722H199.693V37H193.491V38.722H192.217ZM201.472 36.986L201.556 35.852C201.622 35.8613 201.682 35.8707 201.738 35.88C201.794 35.8893 201.846 35.894 201.892 35.894C202.191 35.894 202.424 35.7913 202.592 35.586C202.77 35.3807 202.9 35.11 202.984 34.774C203.068 34.4287 203.129 34.0413 203.166 33.612C203.204 33.1827 203.232 32.7533 203.25 32.324L203.376 29.58H209.074V37H207.73V30.364L208.052 30.756H204.244L204.552 30.35L204.454 32.408C204.426 33.0613 204.375 33.6727 204.3 34.242C204.226 34.8113 204.109 35.3107 203.95 35.74C203.801 36.1693 203.591 36.5053 203.32 36.748C203.059 36.9907 202.718 37.112 202.298 37.112C202.177 37.112 202.046 37.098 201.906 37.07C201.776 37.0513 201.631 37.0233 201.472 36.986ZM211.673 37V29.58H213.017V34.984L217.567 29.58H218.785V37H217.441V31.596L212.905 37H211.673ZM221.394 37V29.58H222.738V32.73H226.966V29.58H228.31V37H226.966V33.892H222.738V37H221.394ZM235.473 37V35.432L235.403 35.138V32.464C235.403 31.8947 235.235 31.456 234.899 31.148C234.572 30.8307 234.078 30.672 233.415 30.672C232.976 30.672 232.547 30.7467 232.127 30.896C231.707 31.036 231.352 31.2273 231.063 31.47L230.503 30.462C230.886 30.154 231.343 29.9207 231.875 29.762C232.416 29.594 232.981 29.51 233.569 29.51C234.586 29.51 235.37 29.7573 235.921 30.252C236.472 30.7467 236.747 31.5027 236.747 32.52V37H235.473ZM233.037 37.084C232.486 37.084 232.001 36.9907 231.581 36.804C231.17 36.6173 230.853 36.3607 230.629 36.034C230.405 35.698 230.293 35.32 230.293 34.9C230.293 34.4987 230.386 34.1347 230.573 33.808C230.769 33.4813 231.082 33.22 231.511 33.024C231.95 32.828 232.538 32.73 233.275 32.73H235.627V33.696H233.331C232.659 33.696 232.206 33.808 231.973 34.032C231.74 34.256 231.623 34.5267 231.623 34.844C231.623 35.208 231.768 35.502 232.057 35.726C232.346 35.9407 232.748 36.048 233.261 36.048C233.765 36.048 234.204 35.936 234.577 35.712C234.96 35.488 235.235 35.1613 235.403 34.732L235.669 35.656C235.492 36.0947 235.179 36.4447 234.731 36.706C234.283 36.958 233.718 37.084 233.037 37.084ZM245.097 37.098C244.537 37.098 243.986 37.028 243.445 36.888C242.913 36.7387 242.437 36.5287 242.017 36.258L242.423 35.236C242.778 35.46 243.184 35.6373 243.641 35.768C244.098 35.8893 244.56 35.95 245.027 35.95C245.456 35.95 245.825 35.8987 246.133 35.796C246.45 35.6933 246.693 35.5533 246.861 35.376C247.029 35.1893 247.113 34.9747 247.113 34.732C247.113 34.3867 246.959 34.1207 246.651 33.934C246.343 33.7473 245.914 33.654 245.363 33.654H244.019V32.688H245.279C245.606 32.688 245.89 32.6507 246.133 32.576C246.376 32.5013 246.562 32.3893 246.693 32.24C246.833 32.0813 246.903 31.8993 246.903 31.694C246.903 31.47 246.824 31.2787 246.665 31.12C246.506 30.9613 246.282 30.84 245.993 30.756C245.713 30.672 245.382 30.63 244.999 30.63C244.626 30.6393 244.243 30.6907 243.851 30.784C243.468 30.8773 243.076 31.022 242.675 31.218L242.311 30.168C242.759 29.9533 243.198 29.79 243.627 29.678C244.066 29.5567 244.5 29.4913 244.929 29.482C245.573 29.4633 246.147 29.538 246.651 29.706C247.155 29.8647 247.552 30.098 247.841 30.406C248.14 30.714 248.289 31.078 248.289 31.498C248.289 31.8527 248.177 32.17 247.953 32.45C247.729 32.7207 247.43 32.9353 247.057 33.094C246.684 33.2527 246.254 33.332 245.769 33.332L245.825 33.01C246.656 33.01 247.309 33.1733 247.785 33.5C248.261 33.8267 248.499 34.27 248.499 34.83C248.499 35.278 248.35 35.6747 248.051 36.02C247.752 36.356 247.346 36.622 246.833 36.818C246.329 37.0047 245.75 37.098 245.097 37.098ZM255.092 37V35.432L255.022 35.138V32.464C255.022 31.8947 254.854 31.456 254.518 31.148C254.192 30.8307 253.697 30.672 253.034 30.672C252.596 30.672 252.166 30.7467 251.746 30.896C251.326 31.036 250.972 31.2273 250.682 31.47L250.122 30.462C250.505 30.154 250.962 29.9207 251.494 29.762C252.036 29.594 252.6 29.51 253.188 29.51C254.206 29.51 254.99 29.7573 255.54 30.252C256.091 30.7467 256.366 31.5027 256.366 32.52V37H255.092ZM252.656 37.084C252.106 37.084 251.62 36.9907 251.2 36.804C250.79 36.6173 250.472 36.3607 250.248 36.034C250.024 35.698 249.912 35.32 249.912 34.9C249.912 34.4987 250.006 34.1347 250.192 33.808C250.388 33.4813 250.701 33.22 251.13 33.024C251.569 32.828 252.157 32.73 252.894 32.73H255.246V33.696H252.95C252.278 33.696 251.826 33.808 251.592 34.032C251.359 34.256 251.242 34.5267 251.242 34.844C251.242 35.208 251.387 35.502 251.676 35.726C251.966 35.9407 252.367 36.048 252.88 36.048C253.384 36.048 253.823 35.936 254.196 35.712C254.579 35.488 254.854 35.1613 255.022 34.732L255.288 35.656C255.111 36.0947 254.798 36.4447 254.35 36.706C253.902 36.958 253.338 37.084 252.656 37.084ZM258.786 37V29.58H264.246V30.756H259.808L260.13 30.448V37H258.786ZM268.472 37.084C267.726 37.084 267.063 36.9207 266.484 36.594C265.906 36.2673 265.448 35.8193 265.112 35.25C264.776 34.6713 264.608 34.018 264.608 33.29C264.608 32.5527 264.776 31.8993 265.112 31.33C265.448 30.7607 265.906 30.3173 266.484 30C267.063 29.6733 267.726 29.51 268.472 29.51C269.21 29.51 269.868 29.6733 270.446 30C271.034 30.3173 271.492 30.7607 271.818 31.33C272.154 31.89 272.322 32.5433 272.322 33.29C272.322 34.0273 272.154 34.6807 271.818 35.25C271.492 35.8193 271.034 36.2673 270.446 36.594C269.868 36.9207 269.21 37.084 268.472 37.084ZM268.472 35.908C268.948 35.908 269.373 35.8007 269.746 35.586C270.129 35.3713 270.428 35.068 270.642 34.676C270.857 34.2747 270.964 33.8127 270.964 33.29C270.964 32.758 270.857 32.3007 270.642 31.918C270.428 31.526 270.129 31.2227 269.746 31.008C269.373 30.7933 268.948 30.686 268.472 30.686C267.996 30.686 267.572 30.7933 267.198 31.008C266.825 31.2227 266.526 31.526 266.302 31.918C266.078 32.3007 265.966 32.758 265.966 33.29C265.966 33.8127 266.078 34.2747 266.302 34.676C266.526 35.068 266.825 35.3713 267.198 35.586C267.572 35.8007 267.996 35.908 268.472 35.908ZM272.976 36.986L273.06 35.852C273.126 35.8613 273.186 35.8707 273.242 35.88C273.298 35.8893 273.35 35.894 273.396 35.894C273.695 35.894 273.928 35.7913 274.096 35.586C274.274 35.3807 274.404 35.11 274.488 34.774C274.572 34.4287 274.633 34.0413 274.67 33.612C274.708 33.1827 274.736 32.7533 274.754 32.324L274.88 29.58H280.578V37H279.234V30.364L279.556 30.756H275.748L276.056 30.35L275.958 32.408C275.93 33.0613 275.879 33.6727 275.804 34.242C275.73 34.8113 275.613 35.3107 275.454 35.74C275.305 36.1693 275.095 36.5053 274.824 36.748C274.563 36.9907 274.222 37.112 273.802 37.112C273.681 37.112 273.55 37.098 273.41 37.07C273.28 37.0513 273.135 37.0233 272.976 36.986ZM286.355 37.084C285.608 37.084 284.946 36.9207 284.367 36.594C283.788 36.2673 283.331 35.8193 282.995 35.25C282.659 34.6713 282.491 34.018 282.491 33.29C282.491 32.5527 282.659 31.8993 282.995 31.33C283.331 30.7607 283.788 30.3173 284.367 30C284.946 29.6733 285.608 29.51 286.355 29.51C287.092 29.51 287.75 29.6733 288.329 30C288.917 30.3173 289.374 30.7607 289.701 31.33C290.037 31.89 290.205 32.5433 290.205 33.29C290.205 34.0273 290.037 34.6807 289.701 35.25C289.374 35.8193 288.917 36.2673 288.329 36.594C287.75 36.9207 287.092 37.084 286.355 37.084ZM286.355 35.908C286.831 35.908 287.256 35.8007 287.629 35.586C288.012 35.3713 288.31 35.068 288.525 34.676C288.74 34.2747 288.847 33.8127 288.847 33.29C288.847 32.758 288.74 32.3007 288.525 31.918C288.31 31.526 288.012 31.2227 287.629 31.008C287.256 30.7933 286.831 30.686 286.355 30.686C285.879 30.686 285.454 30.7933 285.081 31.008C284.708 31.2227 284.409 31.526 284.185 31.918C283.961 32.3007 283.849 32.758 283.849 33.29C283.849 33.8127 283.961 34.2747 284.185 34.676C284.409 35.068 284.708 35.3713 285.081 35.586C285.454 35.8007 285.879 35.908 286.355 35.908ZM292.146 37V29.58H295.59C296.458 29.58 297.139 29.748 297.634 30.084C298.138 30.4107 298.39 30.8773 298.39 31.484C298.39 32.0907 298.152 32.562 297.676 32.898C297.209 33.2247 296.588 33.388 295.814 33.388L296.024 33.024C296.91 33.024 297.568 33.1873 297.998 33.514C298.427 33.8407 298.642 34.3213 298.642 34.956C298.642 35.6 298.399 36.104 297.914 36.468C297.438 36.8227 296.705 37 295.716 37H292.146ZM293.462 35.964H295.618C296.178 35.964 296.598 35.88 296.878 35.712C297.158 35.5347 297.298 35.2547 297.298 34.872C297.298 34.48 297.167 34.1953 296.906 34.018C296.654 33.8313 296.252 33.738 295.702 33.738H293.462V35.964ZM293.462 32.772H295.478C295.991 32.772 296.378 32.6787 296.64 32.492C296.91 32.296 297.046 32.0253 297.046 31.68C297.046 31.3253 296.91 31.0593 296.64 30.882C296.378 30.7047 295.991 30.616 295.478 30.616H293.462V32.772ZM306.121 37L303.251 33.388L304.357 32.716L307.703 37H306.121ZM300.745 37V29.58H302.089V37H300.745ZM301.683 33.864V32.716H304.133V33.864H301.683ZM304.469 33.444L303.223 33.276L306.065 29.58H307.507L304.469 33.444ZM313.526 37V35.432L313.456 35.138V32.464C313.456 31.8947 313.288 31.456 312.952 31.148C312.625 30.8307 312.13 30.672 311.468 30.672C311.029 30.672 310.6 30.7467 310.18 30.896C309.76 31.036 309.405 31.2273 309.116 31.47L308.556 30.462C308.938 30.154 309.396 29.9207 309.928 29.762C310.469 29.594 311.034 29.51 311.622 29.51C312.639 29.51 313.423 29.7573 313.974 30.252C314.524 30.7467 314.8 31.5027 314.8 32.52V37H313.526ZM311.09 37.084C310.539 37.084 310.054 36.9907 309.634 36.804C309.223 36.6173 308.906 36.3607 308.682 36.034C308.458 35.698 308.346 35.32 308.346 34.9C308.346 34.4987 308.439 34.1347 308.626 33.808C308.822 33.4813 309.134 33.22 309.564 33.024C310.002 32.828 310.59 32.73 311.328 32.73H313.68V33.696H311.384C310.712 33.696 310.259 33.808 310.026 34.032C309.792 34.256 309.676 34.5267 309.676 34.844C309.676 35.208 309.82 35.502 310.11 35.726C310.399 35.9407 310.8 36.048 311.314 36.048C311.818 36.048 312.256 35.936 312.63 35.712C313.012 35.488 313.288 35.1613 313.456 34.732L313.722 35.656C313.544 36.0947 313.232 36.4447 312.784 36.706C312.336 36.958 311.771 37.084 311.09 37.084ZM320.476 33.738V32.576H324.242V33.738H320.476ZM332.633 37.112C331.942 37.112 331.27 37.0047 330.617 36.79C329.973 36.5753 329.446 36.286 329.035 35.922L329.679 34.816C330.006 35.124 330.43 35.376 330.953 35.572C331.476 35.768 332.031 35.866 332.619 35.866C333.366 35.866 333.94 35.7073 334.341 35.39C334.742 35.0727 334.943 34.648 334.943 34.116C334.943 33.752 334.854 33.4347 334.677 33.164C334.5 32.8933 334.192 32.688 333.753 32.548C333.324 32.3987 332.731 32.324 331.975 32.324H329.749L330.267 27.2H335.797V28.418H330.785L331.513 27.732L331.107 31.778L330.379 31.106H332.269C333.249 31.106 334.038 31.232 334.635 31.484C335.232 31.736 335.666 32.086 335.937 32.534C336.208 32.9727 336.343 33.4813 336.343 34.06C336.343 34.62 336.208 35.1333 335.937 35.6C335.666 36.0573 335.256 36.426 334.705 36.706C334.164 36.9767 333.473 37.112 332.633 37.112ZM341.512 37.112C340.747 37.112 340.061 36.916 339.454 36.524C338.857 36.132 338.381 35.5627 338.026 34.816C337.681 34.0693 337.508 33.164 337.508 32.1C337.508 31.036 337.681 30.1307 338.026 29.384C338.381 28.6373 338.857 28.068 339.454 27.676C340.061 27.284 340.747 27.088 341.512 27.088C342.268 27.088 342.949 27.284 343.556 27.676C344.163 28.068 344.639 28.6373 344.984 29.384C345.329 30.1307 345.502 31.036 345.502 32.1C345.502 33.164 345.329 34.0693 344.984 34.816C344.639 35.5627 344.163 36.132 343.556 36.524C342.949 36.916 342.268 37.112 341.512 37.112ZM341.512 35.866C342.025 35.866 342.473 35.726 342.856 35.446C343.248 35.166 343.551 34.746 343.766 34.186C343.99 33.626 344.102 32.9307 344.102 32.1C344.102 31.2693 343.99 30.574 343.766 30.014C343.551 29.454 343.248 29.034 342.856 28.754C342.473 28.474 342.025 28.334 341.512 28.334C340.999 28.334 340.546 28.474 340.154 28.754C339.762 29.034 339.454 29.454 339.23 30.014C339.015 30.574 338.908 31.2693 338.908 32.1C338.908 32.9307 339.015 33.626 339.23 34.186C339.454 34.746 339.762 35.166 340.154 35.446C340.546 35.726 340.999 35.866 341.512 35.866ZM354.47 37.084C353.714 37.084 353.037 36.9207 352.44 36.594C351.852 36.2673 351.39 35.8193 351.054 35.25C350.718 34.6807 350.55 34.0273 350.55 33.29C350.55 32.5527 350.718 31.8993 351.054 31.33C351.39 30.7607 351.852 30.3173 352.44 30C353.037 29.6733 353.714 29.51 354.47 29.51C355.142 29.51 355.739 29.6453 356.262 29.916C356.794 30.1773 357.204 30.5693 357.494 31.092L356.472 31.75C356.229 31.386 355.93 31.12 355.576 30.952C355.23 30.7747 354.857 30.686 354.456 30.686C353.97 30.686 353.536 30.7933 353.154 31.008C352.771 31.2227 352.468 31.526 352.244 31.918C352.02 32.3007 351.908 32.758 351.908 33.29C351.908 33.822 352.02 34.284 352.244 34.676C352.468 35.068 352.771 35.3713 353.154 35.586C353.536 35.8007 353.97 35.908 354.456 35.908C354.857 35.908 355.23 35.824 355.576 35.656C355.93 35.4787 356.229 35.208 356.472 34.844L357.494 35.488C357.204 36.0013 356.794 36.398 356.262 36.678C355.739 36.9487 355.142 37.084 354.47 37.084ZM359.234 37V29.58H360.578V34.984L365.128 29.58H366.346V37H365.002V31.596L360.466 37H359.234ZM368.954 37V29.58H370.34L373.532 35.068H372.972L376.248 29.58H377.508V37H376.29V31.092L376.514 31.218L373.518 36.16H372.93L369.92 31.12L370.186 31.064V37H368.954ZM380.124 37V29.58H383.568C384.436 29.58 385.118 29.748 385.612 30.084C386.116 30.4107 386.368 30.8773 386.368 31.484C386.368 32.0907 386.13 32.562 385.654 32.898C385.188 33.2247 384.567 33.388 383.792 33.388L384.002 33.024C384.889 33.024 385.547 33.1873 385.976 33.514C386.406 33.8407 386.62 34.3213 386.62 34.956C386.62 35.6 386.378 36.104 385.892 36.468C385.416 36.8227 384.684 37 383.694 37H380.124ZM381.44 35.964H383.596C384.156 35.964 384.576 35.88 384.856 35.712C385.136 35.5347 385.276 35.2547 385.276 34.872C385.276 34.48 385.146 34.1953 384.884 34.018C384.632 33.8313 384.231 33.738 383.68 33.738H381.44V35.964ZM381.44 32.772H383.456C383.97 32.772 384.357 32.6787 384.618 32.492C384.889 32.296 385.024 32.0253 385.024 31.68C385.024 31.3253 384.889 31.0593 384.618 30.882C384.357 30.7047 383.97 30.616 383.456 30.616H381.44V32.772ZM391.902 37.084C391.155 37.084 390.493 36.9207 389.914 36.594C389.335 36.2673 388.878 35.8193 388.542 35.25C388.206 34.6713 388.038 34.018 388.038 33.29C388.038 32.5527 388.206 31.8993 388.542 31.33C388.878 30.7607 389.335 30.3173 389.914 30C390.493 29.6733 391.155 29.51 391.902 29.51C392.639 29.51 393.297 29.6733 393.876 30C394.464 30.3173 394.921 30.7607 395.248 31.33C395.584 31.89 395.752 32.5433 395.752 33.29C395.752 34.0273 395.584 34.6807 395.248 35.25C394.921 35.8193 394.464 36.2673 393.876 36.594C393.297 36.9207 392.639 37.084 391.902 37.084ZM391.902 35.908C392.378 35.908 392.803 35.8007 393.176 35.586C393.559 35.3713 393.857 35.068 394.072 34.676C394.287 34.2747 394.394 33.8127 394.394 33.29C394.394 32.758 394.287 32.3007 394.072 31.918C393.857 31.526 393.559 31.2227 393.176 31.008C392.803 30.7933 392.378 30.686 391.902 30.686C391.426 30.686 391.001 30.7933 390.628 31.008C390.255 31.2227 389.956 31.526 389.732 31.918C389.508 32.3007 389.396 32.758 389.396 33.29C389.396 33.8127 389.508 34.2747 389.732 34.676C389.956 35.068 390.255 35.3713 390.628 35.586C391.001 35.8007 391.426 35.908 391.902 35.908ZM396.406 36.986L396.49 35.852C396.555 35.8613 396.616 35.8707 396.672 35.88C396.728 35.8893 396.779 35.894 396.826 35.894C397.125 35.894 397.358 35.7913 397.526 35.586C397.703 35.3807 397.834 35.11 397.918 34.774C398.002 34.4287 398.063 34.0413 398.1 33.612C398.137 33.1827 398.165 32.7533 398.184 32.324L398.31 29.58H404.008V37H402.664V30.364L402.986 30.756H399.178L399.486 30.35L399.388 32.408C399.36 33.0613 399.309 33.6727 399.234 34.242C399.159 34.8113 399.043 35.3107 398.884 35.74C398.735 36.1693 398.525 36.5053 398.254 36.748C397.993 36.9907 397.652 37.112 397.232 37.112C397.111 37.112 396.98 37.098 396.84 37.07C396.709 37.0513 396.565 37.0233 396.406 36.986ZM409.785 37.084C409.038 37.084 408.375 36.9207 407.797 36.594C407.218 36.2673 406.761 35.8193 406.425 35.25C406.089 34.6713 405.921 34.018 405.921 33.29C405.921 32.5527 406.089 31.8993 406.425 31.33C406.761 30.7607 407.218 30.3173 407.797 30C408.375 29.6733 409.038 29.51 409.785 29.51C410.522 29.51 411.18 29.6733 411.759 30C412.347 30.3173 412.804 30.7607 413.131 31.33C413.467 31.89 413.635 32.5433 413.635 33.29C413.635 34.0273 413.467 34.6807 413.131 35.25C412.804 35.8193 412.347 36.2673 411.759 36.594C411.18 36.9207 410.522 37.084 409.785 37.084ZM409.785 35.908C410.261 35.908 410.685 35.8007 411.059 35.586C411.441 35.3713 411.74 35.068 411.955 34.676C412.169 34.2747 412.277 33.8127 412.277 33.29C412.277 32.758 412.169 32.3007 411.955 31.918C411.74 31.526 411.441 31.2227 411.059 31.008C410.685 30.7933 410.261 30.686 409.785 30.686C409.309 30.686 408.884 30.7933 408.511 31.008C408.137 31.2227 407.839 31.526 407.615 31.918C407.391 32.3007 407.279 32.758 407.279 33.29C407.279 33.8127 407.391 34.2747 407.615 34.676C407.839 35.068 408.137 35.3713 408.511 35.586C408.884 35.8007 409.309 35.908 409.785 35.908ZM415.575 37V29.58H419.019C419.887 29.58 420.569 29.748 421.063 30.084C421.567 30.4107 421.819 30.8773 421.819 31.484C421.819 32.0907 421.581 32.562 421.105 32.898C420.639 33.2247 420.018 33.388 419.243 33.388L419.453 33.024C420.34 33.024 420.998 33.1873 421.427 33.514C421.857 33.8407 422.071 34.3213 422.071 34.956C422.071 35.6 421.829 36.104 421.343 36.468C420.867 36.8227 420.135 37 419.145 37H415.575ZM416.891 35.964H419.047C419.607 35.964 420.027 35.88 420.307 35.712C420.587 35.5347 420.727 35.2547 420.727 34.872C420.727 34.48 420.597 34.1953 420.335 34.018C420.083 33.8313 419.682 33.738 419.131 33.738H416.891V35.964ZM416.891 32.772H418.907C419.421 32.772 419.808 32.6787 420.069 32.492C420.34 32.296 420.475 32.0253 420.475 31.68C420.475 31.3253 420.34 31.0593 420.069 30.882C419.808 30.7047 419.421 30.616 418.907 30.616H416.891V32.772Z" fill="white"/>
</g>
<defs>
<filter id="filter0_ddd_2_3141" x="-4" y="0" width="475" height="96" filterUnits="userSpaceOnUse" color-interpolation-filters="sRGB">
<feFlood flood-opacity="0" result="BackgroundImageFix"/>
<feColorMatrix in="SourceAlpha" type="matrix" values="0 0 0 0 0 0 0 0 0 0 0 0 0 0 0 0 0 0 127 0" result="hardAlpha"/>
<feOffset dy="8"/>
<feGaussianBlur stdDeviation="6"/>
<feColorMatrix type="matrix" values="0 0 0 0 0.045 0 0 0 0 0.0458333 0 0 0 0 0.05 0 0 0 0.08 0"/>
<feBlend mode="normal" in2="BackgroundImageFix" result="effect1_dropShadow_2_3141"/>
<feColorMatrix in="SourceAlpha" type="matrix" values="0 0 0 0 0 0 0 0 0 0 0 0 0 0 0 0 0 0 127 0" result="hardAlpha"/>
<feOffset dy="16"/>
<feGaussianBlur stdDeviation="12"/>
<feColorMatrix type="matrix" values="0 0 0 0 0.045 0 0 0 0 0.0458333 0 0 0 0 0.05 0 0 0 0.04 0"/>
<feBlend mode="normal" in2="effect1_dropShadow_2_3141" result="effect2_dropShadow_2_3141"/>
<feColorMatrix in="SourceAlpha" type="matrix" values="0 0 0 0 0 0 0 0 0 0 0 0 0 0 0 0 0 0 127 0" result="hardAlpha"/>
<feOffset dy="1"/>
<feGaussianBlur stdDeviation="1"/>
<feColorMatrix type="matrix" values="0 0 0 0 0.045 0 0 0 0 0.0458333 0 0 0 0 0.05 0 0 0 0.08 0"/>
<feBlend mode="normal" in2="effect2_dropShadow_2_3141" result="effect3_dropShadow_2_3141"/>
<feBlend mode="normal" in="SourceGraphic" in2="effect3_dropShadow_2_3141" result="shape"/>
</filter>
</defs>
</svg>
