<svg width="274" height="76" viewBox="0 0 274 76" fill="none" xmlns="http://www.w3.org/2000/svg">
<g filter="url(#filter0_ddd_2_3143)">
<rect x="20" y="8" width="230" height="48" rx="10" fill="#47B27D"/>
<path d="M51 32.5L54 35.5L61 28.5" stroke="white" stroke-width="2" stroke-linecap="round" stroke-linejoin="round"/>
<path d="M56 42C61.5228 42 66 37.5228 66 32C66 26.4771 61.5228 22 56 22C50.4771 22 46 26.4771 46 32C46 37.5228 50.4771 42 56 42Z" stroke="white" stroke-width="2" stroke-linecap="round" stroke-linejoin="round"/>
<path d="M78.448 35.936L78.938 34.9C79.3673 35.236 79.8387 35.488 80.352 35.656C80.8747 35.824 81.3927 35.9127 81.906 35.922C82.4193 35.922 82.8907 35.852 83.32 35.712C83.7587 35.572 84.1087 35.362 84.37 35.082C84.6313 34.802 84.762 34.4567 84.762 34.046C84.762 33.542 84.5567 33.1593 84.146 32.898C83.7447 32.6367 83.1847 32.506 82.466 32.506H80.282V31.372H82.368C82.9933 31.372 83.4787 31.246 83.824 30.994C84.1787 30.7327 84.356 30.3733 84.356 29.916C84.356 29.5707 84.2487 29.2813 84.034 29.048C83.8287 28.8053 83.544 28.6233 83.18 28.502C82.8253 28.3807 82.4193 28.32 81.962 28.32C81.514 28.3107 81.052 28.3713 80.576 28.502C80.1 28.6233 79.6427 28.8193 79.204 29.09L78.756 27.942C79.3533 27.606 79.974 27.3727 80.618 27.242C81.2713 27.102 81.9013 27.06 82.508 27.116C83.1147 27.1627 83.6607 27.3027 84.146 27.536C84.6407 27.76 85.0327 28.0587 85.322 28.432C85.6207 28.796 85.77 29.2347 85.77 29.748C85.77 30.2147 85.6487 30.63 85.406 30.994C85.1633 31.3487 84.8273 31.624 84.398 31.82C83.9687 32.0067 83.4693 32.1 82.9 32.1L82.956 31.722C83.6093 31.722 84.174 31.8293 84.65 32.044C85.1353 32.2493 85.5087 32.5433 85.77 32.926C86.0407 33.3087 86.176 33.752 86.176 34.256C86.176 34.732 86.0547 35.1567 85.812 35.53C85.5693 35.894 85.238 36.202 84.818 36.454C84.4073 36.6967 83.936 36.874 83.404 36.986C82.8813 37.098 82.3307 37.1353 81.752 37.098C81.1733 37.0607 80.5993 36.9487 80.03 36.762C79.47 36.5753 78.9427 36.3 78.448 35.936ZM92.8344 37V35.432L92.7644 35.138V32.464C92.7644 31.8947 92.5964 31.456 92.2604 31.148C91.9338 30.8307 91.4391 30.672 90.7764 30.672C90.3378 30.672 89.9084 30.7467 89.4884 30.896C89.0684 31.036 88.7138 31.2273 88.4244 31.47L87.8644 30.462C88.2471 30.154 88.7044 29.9207 89.2364 29.762C89.7778 29.594 90.3424 29.51 90.9304 29.51C91.9478 29.51 92.7318 29.7573 93.2824 30.252C93.8331 30.7467 94.1084 31.5027 94.1084 32.52V37H92.8344ZM90.3984 37.084C89.8478 37.084 89.3624 36.9907 88.9424 36.804C88.5318 36.6173 88.2144 36.3607 87.9904 36.034C87.7664 35.698 87.6544 35.32 87.6544 34.9C87.6544 34.4987 87.7478 34.1347 87.9344 33.808C88.1304 33.4813 88.4431 33.22 88.8724 33.024C89.3111 32.828 89.8991 32.73 90.6364 32.73H92.9884V33.696H90.6924C90.0204 33.696 89.5678 33.808 89.3344 34.032C89.1011 34.256 88.9844 34.5267 88.9844 34.844C88.9844 35.208 89.1291 35.502 89.4184 35.726C89.7078 35.9407 90.1091 36.048 90.6224 36.048C91.1264 36.048 91.5651 35.936 91.9384 35.712C92.3211 35.488 92.5964 35.1613 92.7644 34.732L93.0304 35.656C92.8531 36.0947 92.5404 36.4447 92.0924 36.706C91.6444 36.958 91.0798 37.084 90.3984 37.084ZM96.5286 37V29.58H97.9146L101.107 35.068H100.547L103.823 29.58H105.083V37H103.865V31.092L104.089 31.218L101.093 36.16H100.505L97.4946 31.12L97.7606 31.064V37H96.5286ZM111.002 37.084C110.209 37.084 109.509 36.9207 108.902 36.594C108.305 36.2673 107.838 35.8193 107.502 35.25C107.176 34.6807 107.012 34.0273 107.012 33.29C107.012 32.5527 107.171 31.8993 107.488 31.33C107.815 30.7607 108.258 30.3173 108.818 30C109.388 29.6733 110.027 29.51 110.736 29.51C111.455 29.51 112.09 29.6687 112.64 29.986C113.191 30.3033 113.62 30.7513 113.928 31.33C114.246 31.8993 114.404 32.5667 114.404 33.332C114.404 33.388 114.4 33.4533 114.39 33.528C114.39 33.6027 114.386 33.6727 114.376 33.738H108.062V32.772H113.676L113.13 33.108C113.14 32.632 113.042 32.2073 112.836 31.834C112.631 31.4607 112.346 31.1713 111.982 30.966C111.628 30.7513 111.212 30.644 110.736 30.644C110.27 30.644 109.854 30.7513 109.49 30.966C109.126 31.1713 108.842 31.4653 108.636 31.848C108.431 32.2213 108.328 32.6507 108.328 33.136V33.36C108.328 33.8547 108.44 34.298 108.664 34.69C108.898 35.0727 109.22 35.3713 109.63 35.586C110.041 35.8007 110.512 35.908 111.044 35.908C111.483 35.908 111.88 35.8333 112.234 35.684C112.598 35.5347 112.916 35.3107 113.186 35.012L113.928 35.88C113.592 36.272 113.172 36.5707 112.668 36.776C112.174 36.9813 111.618 37.084 111.002 37.084ZM117.645 37V30.406L117.981 30.756H114.929V29.58H121.705V30.756H118.667L118.989 30.406V37H117.645ZM128.455 37L125.585 33.388L126.691 32.716L130.037 37H128.455ZM123.079 37V29.58H124.423V37H123.079ZM124.017 33.864V32.716H126.467V33.864H124.017ZM126.803 33.444L125.557 33.276L128.399 29.58H129.841L126.803 33.444ZM135.86 37V35.432L135.79 35.138V32.464C135.79 31.8947 135.622 31.456 135.286 31.148C134.959 30.8307 134.464 30.672 133.802 30.672C133.363 30.672 132.934 30.7467 132.514 30.896C132.094 31.036 131.739 31.2273 131.45 31.47L130.89 30.462C131.272 30.154 131.73 29.9207 132.262 29.762C132.803 29.594 133.368 29.51 133.956 29.51C134.973 29.51 135.757 29.7573 136.308 30.252C136.858 30.7467 137.134 31.5027 137.134 32.52V37H135.86ZM133.424 37.084C132.873 37.084 132.388 36.9907 131.968 36.804C131.557 36.6173 131.24 36.3607 131.016 36.034C130.792 35.698 130.68 35.32 130.68 34.9C130.68 34.4987 130.773 34.1347 130.96 33.808C131.156 33.4813 131.468 33.22 131.898 33.024C132.336 32.828 132.924 32.73 133.662 32.73H136.014V33.696H133.718C133.046 33.696 132.593 33.808 132.36 34.032C132.126 34.256 132.01 34.5267 132.01 34.844C132.01 35.208 132.154 35.502 132.444 35.726C132.733 35.9407 133.134 36.048 133.648 36.048C134.152 36.048 134.59 35.936 134.964 35.712C135.346 35.488 135.622 35.1613 135.79 34.732L136.056 35.656C135.878 36.0947 135.566 36.4447 135.118 36.706C134.67 36.958 134.105 37.084 133.424 37.084ZM148.382 36.37V30.756H145.162L145.092 32.184C145.073 32.6507 145.04 33.1033 144.994 33.542C144.956 33.9713 144.891 34.368 144.798 34.732C144.714 35.096 144.588 35.3947 144.42 35.628C144.252 35.8613 144.028 36.006 143.748 36.062L142.418 35.824C142.707 35.8333 142.94 35.74 143.118 35.544C143.295 35.3387 143.43 35.0587 143.524 34.704C143.626 34.3493 143.701 33.948 143.748 33.5C143.794 33.0427 143.832 32.5713 143.86 32.086L143.972 29.58H149.726V36.37H148.382ZM142.124 38.722V35.824H150.86V38.722H149.6V37H143.398V38.722H142.124ZM155.789 37.084C155.042 37.084 154.379 36.9207 153.801 36.594C153.222 36.2673 152.765 35.8193 152.429 35.25C152.093 34.6713 151.925 34.018 151.925 33.29C151.925 32.5527 152.093 31.8993 152.429 31.33C152.765 30.7607 153.222 30.3173 153.801 30C154.379 29.6733 155.042 29.51 155.789 29.51C156.526 29.51 157.184 29.6733 157.763 30C158.351 30.3173 158.808 30.7607 159.135 31.33C159.471 31.89 159.639 32.5433 159.639 33.29C159.639 34.0273 159.471 34.6807 159.135 35.25C158.808 35.8193 158.351 36.2673 157.763 36.594C157.184 36.9207 156.526 37.084 155.789 37.084ZM155.789 35.908C156.265 35.908 156.689 35.8007 157.063 35.586C157.445 35.3713 157.744 35.068 157.959 34.676C158.173 34.2747 158.281 33.8127 158.281 33.29C158.281 32.758 158.173 32.3007 157.959 31.918C157.744 31.526 157.445 31.2227 157.063 31.008C156.689 30.7933 156.265 30.686 155.789 30.686C155.313 30.686 154.888 30.7933 154.515 31.008C154.141 31.2227 153.843 31.526 153.619 31.918C153.395 32.3007 153.283 32.758 153.283 33.29C153.283 33.8127 153.395 34.2747 153.619 34.676C153.843 35.068 154.141 35.3713 154.515 35.586C154.888 35.8007 155.313 35.908 155.789 35.908ZM165.009 37.112C164.393 37.112 163.847 37.014 163.371 36.818C162.905 36.622 162.503 36.3327 162.167 35.95C161.831 35.558 161.575 35.068 161.397 34.48C161.229 33.8827 161.145 33.1827 161.145 32.38C161.145 31.7453 161.201 31.176 161.313 30.672C161.425 30.168 161.584 29.72 161.789 29.328C162.004 28.936 162.265 28.5953 162.573 28.306C162.891 28.0167 163.245 27.7787 163.637 27.592C164.039 27.396 164.477 27.2467 164.953 27.144L168.341 26.388L168.537 27.634L165.415 28.306C165.229 28.3433 165.005 28.3993 164.743 28.474C164.482 28.5487 164.216 28.6653 163.945 28.824C163.675 28.9733 163.423 29.1833 163.189 29.454C162.956 29.7247 162.769 30.0793 162.629 30.518C162.489 30.9473 162.419 31.4793 162.419 32.114C162.419 32.2913 162.424 32.4267 162.433 32.52C162.443 32.6133 162.452 32.7067 162.461 32.8C162.48 32.8933 162.494 33.0333 162.503 33.22L161.943 32.646C162.093 32.1327 162.331 31.6847 162.657 31.302C162.984 30.9193 163.376 30.6253 163.833 30.42C164.3 30.2053 164.809 30.098 165.359 30.098C166.05 30.098 166.661 30.2473 167.193 30.546C167.735 30.8447 168.159 31.2553 168.467 31.778C168.775 32.3007 168.929 32.898 168.929 33.57C168.929 34.2513 168.766 34.8627 168.439 35.404C168.122 35.936 167.669 36.356 167.081 36.664C166.493 36.9627 165.803 37.112 165.009 37.112ZM165.135 35.992C165.611 35.992 166.031 35.8893 166.395 35.684C166.759 35.4693 167.044 35.1847 167.249 34.83C167.455 34.466 167.557 34.06 167.557 33.612C167.557 33.164 167.455 32.7673 167.249 32.422C167.044 32.0767 166.759 31.806 166.395 31.61C166.031 31.4047 165.602 31.302 165.107 31.302C164.641 31.302 164.221 31.4 163.847 31.596C163.474 31.7827 163.185 32.0487 162.979 32.394C162.774 32.73 162.671 33.122 162.671 33.57C162.671 34.018 162.774 34.4287 162.979 34.802C163.194 35.166 163.483 35.4553 163.847 35.67C164.221 35.8847 164.65 35.992 165.135 35.992ZM175.331 37V35.432L175.261 35.138V32.464C175.261 31.8947 175.093 31.456 174.757 31.148C174.43 30.8307 173.935 30.672 173.273 30.672C172.834 30.672 172.405 30.7467 171.985 30.896C171.565 31.036 171.21 31.2273 170.921 31.47L170.361 30.462C170.743 30.154 171.201 29.9207 171.733 29.762C172.274 29.594 172.839 29.51 173.427 29.51C174.444 29.51 175.228 29.7573 175.779 30.252C176.329 30.7467 176.605 31.5027 176.605 32.52V37H175.331ZM172.895 37.084C172.344 37.084 171.859 36.9907 171.439 36.804C171.028 36.6173 170.711 36.3607 170.487 36.034C170.263 35.698 170.151 35.32 170.151 34.9C170.151 34.4987 170.244 34.1347 170.431 33.808C170.627 33.4813 170.939 33.22 171.369 33.024C171.807 32.828 172.395 32.73 173.133 32.73H175.485V33.696H173.189C172.517 33.696 172.064 33.808 171.831 34.032C171.597 34.256 171.481 34.5267 171.481 34.844C171.481 35.208 171.625 35.502 171.915 35.726C172.204 35.9407 172.605 36.048 173.119 36.048C173.623 36.048 174.061 35.936 174.435 35.712C174.817 35.488 175.093 35.1613 175.261 34.732L175.527 35.656C175.349 36.0947 175.037 36.4447 174.589 36.706C174.141 36.958 173.576 37.084 172.895 37.084ZM179.025 37V29.58H182.469C183.337 29.58 184.018 29.748 184.513 30.084C185.017 30.4107 185.269 30.8773 185.269 31.484C185.269 32.0907 185.031 32.562 184.555 32.898C184.088 33.2247 183.467 33.388 182.693 33.388L182.903 33.024C183.789 33.024 184.447 33.1873 184.877 33.514C185.306 33.8407 185.521 34.3213 185.521 34.956C185.521 35.6 185.278 36.104 184.793 36.468C184.317 36.8227 183.584 37 182.595 37H179.025ZM180.341 35.964H182.497C183.057 35.964 183.477 35.88 183.757 35.712C184.037 35.5347 184.177 35.2547 184.177 34.872C184.177 34.48 184.046 34.1953 183.785 34.018C183.533 33.8313 183.131 33.738 182.581 33.738H180.341V35.964ZM180.341 32.772H182.357C182.87 32.772 183.257 32.6787 183.519 32.492C183.789 32.296 183.925 32.0253 183.925 31.68C183.925 31.3253 183.789 31.0593 183.519 30.882C183.257 30.7047 182.87 30.616 182.357 30.616H180.341V32.772ZM186.392 36.986L186.476 35.852C186.542 35.8613 186.602 35.8707 186.658 35.88C186.714 35.8893 186.766 35.894 186.812 35.894C187.111 35.894 187.344 35.7913 187.512 35.586C187.69 35.3807 187.82 35.11 187.904 34.774C187.988 34.4287 188.049 34.0413 188.086 33.612C188.124 33.1827 188.152 32.7533 188.17 32.324L188.296 29.58H193.994V37H192.65V30.364L192.972 30.756H189.164L189.472 30.35L189.374 32.408C189.346 33.0613 189.295 33.6727 189.22 34.242C189.146 34.8113 189.029 35.3107 188.87 35.74C188.721 36.1693 188.511 36.5053 188.24 36.748C187.979 36.9907 187.638 37.112 187.218 37.112C187.097 37.112 186.966 37.098 186.826 37.07C186.696 37.0513 186.551 37.0233 186.392 36.986ZM199.897 37.084C199.104 37.084 198.404 36.9207 197.797 36.594C197.2 36.2673 196.733 35.8193 196.397 35.25C196.07 34.6807 195.907 34.0273 195.907 33.29C195.907 32.5527 196.066 31.8993 196.383 31.33C196.71 30.7607 197.153 30.3173 197.713 30C198.282 29.6733 198.922 29.51 199.631 29.51C200.35 29.51 200.984 29.6687 201.535 29.986C202.086 30.3033 202.515 30.7513 202.823 31.33C203.14 31.8993 203.299 32.5667 203.299 33.332C203.299 33.388 203.294 33.4533 203.285 33.528C203.285 33.6027 203.28 33.6727 203.271 33.738H196.957V32.772H202.571L202.025 33.108C202.034 32.632 201.936 32.2073 201.731 31.834C201.526 31.4607 201.241 31.1713 200.877 30.966C200.522 30.7513 200.107 30.644 199.631 30.644C199.164 30.644 198.749 30.7513 198.385 30.966C198.021 31.1713 197.736 31.4653 197.531 31.848C197.326 32.2213 197.223 32.6507 197.223 33.136V33.36C197.223 33.8547 197.335 34.298 197.559 34.69C197.792 35.0727 198.114 35.3713 198.525 35.586C198.936 35.8007 199.407 35.908 199.939 35.908C200.378 35.908 200.774 35.8333 201.129 35.684C201.493 35.5347 201.81 35.3107 202.081 35.012L202.823 35.88C202.487 36.272 202.067 36.5707 201.563 36.776C201.068 36.9813 200.513 37.084 199.897 37.084ZM205.384 37V29.58H206.728V32.73H210.956V29.58H212.3V37H210.956V33.892H206.728V37H205.384ZM219.463 37V35.432L219.393 35.138V32.464C219.393 31.8947 219.225 31.456 218.889 31.148C218.563 30.8307 218.068 30.672 217.405 30.672C216.967 30.672 216.537 30.7467 216.117 30.896C215.697 31.036 215.343 31.2273 215.053 31.47L214.493 30.462C214.876 30.154 215.333 29.9207 215.865 29.762C216.407 29.594 216.971 29.51 217.559 29.51C218.577 29.51 219.361 29.7573 219.911 30.252C220.462 30.7467 220.737 31.5027 220.737 32.52V37H219.463ZM217.027 37.084C216.477 37.084 215.991 36.9907 215.571 36.804C215.161 36.6173 214.843 36.3607 214.619 36.034C214.395 35.698 214.283 35.32 214.283 34.9C214.283 34.4987 214.377 34.1347 214.563 33.808C214.759 33.4813 215.072 33.22 215.501 33.024C215.94 32.828 216.528 32.73 217.265 32.73H219.617V33.696H217.321C216.649 33.696 216.197 33.808 215.963 34.032C215.73 34.256 215.613 34.5267 215.613 34.844C215.613 35.208 215.758 35.502 216.047 35.726C216.337 35.9407 216.738 36.048 217.251 36.048C217.755 36.048 218.194 35.936 218.567 35.712C218.95 35.488 219.225 35.1613 219.393 34.732L219.659 35.656C219.482 36.0947 219.169 36.4447 218.721 36.706C218.273 36.958 217.709 37.084 217.027 37.084ZM223.199 33.906L222.947 27.2H224.529L224.263 33.906H223.199ZM223.745 37.084C223.484 37.084 223.265 36.9953 223.087 36.818C222.91 36.6407 222.821 36.4307 222.821 36.188C222.821 35.9267 222.91 35.712 223.087 35.544C223.265 35.376 223.484 35.292 223.745 35.292C224.007 35.292 224.221 35.376 224.389 35.544C224.557 35.712 224.641 35.9267 224.641 36.188C224.641 36.4307 224.557 36.6407 224.389 36.818C224.221 36.9953 224.007 37.084 223.745 37.084Z" fill="white"/>
</g>
<defs>
<filter id="filter0_ddd_2_3143" x="-4" y="0" width="278" height="96" filterUnits="userSpaceOnUse" color-interpolation-filters="sRGB">
<feFlood flood-opacity="0" result="BackgroundImageFix"/>
<feColorMatrix in="SourceAlpha" type="matrix" values="0 0 0 0 0 0 0 0 0 0 0 0 0 0 0 0 0 0 127 0" result="hardAlpha"/>
<feOffset dy="8"/>
<feGaussianBlur stdDeviation="6"/>
<feColorMatrix type="matrix" values="0 0 0 0 0.045 0 0 0 0 0.0458333 0 0 0 0 0.05 0 0 0 0.08 0"/>
<feBlend mode="normal" in2="BackgroundImageFix" result="effect1_dropShadow_2_3143"/>
<feColorMatrix in="SourceAlpha" type="matrix" values="0 0 0 0 0 0 0 0 0 0 0 0 0 0 0 0 0 0 127 0" result="hardAlpha"/>
<feOffset dy="16"/>
<feGaussianBlur stdDeviation="12"/>
<feColorMatrix type="matrix" values="0 0 0 0 0.045 0 0 0 0 0.0458333 0 0 0 0 0.05 0 0 0 0.04 0"/>
<feBlend mode="normal" in2="effect1_dropShadow_2_3143" result="effect2_dropShadow_2_3143"/>
<feColorMatrix in="SourceAlpha" type="matrix" values="0 0 0 0 0 0 0 0 0 0 0 0 0 0 0 0 0 0 127 0" result="hardAlpha"/>
<feOffset dy="1"/>
<feGaussianBlur stdDeviation="1"/>
<feColorMatrix type="matrix" values="0 0 0 0 0.045 0 0 0 0 0.0458333 0 0 0 0 0.05 0 0 0 0.08 0"/>
<feBlend mode="normal" in2="effect2_dropShadow_2_3143" result="effect3_dropShadow_2_3143"/>
<feBlend mode="normal" in="SourceGraphic" in2="effect3_dropShadow_2_3143" result="shape"/>
</filter>
</defs>
</svg>
