<svg width="21" height="18" viewBox="0 0 21 18" fill="none" xmlns="http://www.w3.org/2000/svg">
<path d="M20.16 16.152V17.184H0V16.152H5.496C4.184 15.4 3.144 14.368 2.376 13.056C1.624 11.744 1.248 10.28 1.248 8.664C1.248 6.2 2.096 4.144 3.792 2.496C5.488 0.831999 7.584 0 10.08 0C12.576 0 14.672 0.831999 16.368 2.496C18.064 4.144 18.912 6.2 18.912 8.664C18.912 10.264 18.528 11.728 17.76 13.056C17.008 14.384 15.976 15.416 14.664 16.152H20.16ZM14.28 4.368C13.144 3.184 11.744 2.592 10.08 2.592C8.416 2.592 7.008 3.184 5.856 4.368C4.72 5.552 4.152 6.992 4.152 8.688C4.152 10.368 4.72 11.8 5.856 12.984C7.008 14.168 8.416 14.76 10.08 14.76C11.744 14.76 13.144 14.168 14.28 12.984C15.432 11.8 16.008 10.368 16.008 8.688C16.008 6.992 15.432 5.552 14.28 4.368Z" fill="#457CDC"/>
</svg>
