<svg width="16" height="18" viewBox="0 0 16 18" fill="none" xmlns="http://www.w3.org/2000/svg">
<path d="M15.12 16.152V17.184H0V16.152H3.072C2.304 15.752 1.6 15.256 0.959999 14.664L2.736 12.528C4.432 14 6.192 14.736 8.016 14.736C8.928 14.736 9.648 14.544 10.176 14.16C10.72 13.76 10.992 13.24 10.992 12.6C10.992 11.944 10.736 11.44 10.224 11.088C9.728 10.72 8.864 10.392 7.632 10.104C6.4 9.8 5.464 9.528 4.824 9.288C4.184 9.032 3.616 8.704 3.12 8.304C2.128 7.552 1.632 6.4 1.632 4.848C1.632 3.296 2.192 2.104 3.312 1.272C4.448 0.424 5.848 0 7.512 0C8.584 0 9.648 0.176 10.704 0.528C11.76 0.879999 12.672 1.376 13.44 2.016L11.928 4.152C11.432 3.704 10.76 3.336 9.912 3.048C9.064 2.76 8.224 2.616 7.392 2.616C6.576 2.616 5.904 2.784 5.376 3.12C4.848 3.456 4.584 3.968 4.584 4.656C4.584 5.328 4.848 5.848 5.376 6.216C5.904 6.568 7.024 6.952 8.736 7.368C10.464 7.784 11.76 8.368 12.624 9.12C13.504 9.872 13.944 10.928 13.944 12.288C13.944 13.936 13.336 15.224 12.12 16.152H15.12Z" fill="#457CDC"/>
</svg>
